<svg xmlns="http://www.w3.org/2000/svg" width="24" height="24"><g fill="none"><path fill="#3E3832" d="M8.6 17.2A8.6 8.6 0 1 1 8.6 0a8.6 8.6 0 0 1 0 17.2zm0-1.6a7 7 0 1 0 0-14 7 7 0 0 0 0 14z"/><path fill="#3E3832" d="M14.3 13.8a1 1 0 0 1 1.5 0l7.5 7.5a1 1 0 0 1-1.5 1.5l-7.5-7.5a1 1 0 0 1 0-1.5z"/><circle cx="8.6" cy="8.6" r="7" fill="#C2EAF7" opacity=".5"/><path fill="#FFF" d="M6.5 13.1a4.5 4.5 0 0 0 1.6.3c2.6 0 4.8-2.4 4.8-5.3 0-1.8-.9-3.4-2.2-4.3 2 .7 3.3 2.6 3.3 5C14 11.5 11.8 14 9 14a4.6 4.6 0 0 1-2.6-.9z"/></g></svg>