<svg xmlns="http://www.w3.org/2000/svg" xmlns:xlink="http://www.w3.org/1999/xlink" width="100" height="100"><defs><circle id="a" cx="50" cy="50" r="50"/><path id="c" d="M39.267 3C45.264 6.197 54 13.997 54 21.247V34c0 6.627-5.373 12-12 12H0V21.247C0 14.287 7.913 6.82 13.792 3.405c1.078 1.85 3.926 9.224 12.591 9.224 8.602 0 12.709-7.798 12.884-9.629z"/><path id="e" d="M36.676 12.352l.128 1.988 1.89 2.195.289 1.483.239 1.992 1.147 1.563-.13 1.7.118 1.997 1.444 1.931v1.688l1.666 1.877.473-1.847-.209-1.777-.283-1.702.492-1.813-.667-1.815.727-1.89-.269-1.671-.29-1.769.29-1.969-.458-1.208-.89-2.011-.352-1.832-1.662-1.469-.226-1.582-1.449-1.717L36 4.127l-1.324-1.255-1.797-.809L31.056.9l-2.062.322-1.779-.437-1.728-.631L23.673.09l-1.808.33L20.05 0l-1.785.414-1.822.056-1.693.752-1.805.278-1.792.45-1.605.922-1.288 1.39-1.77.695L5.312 6.41l-1.06 1.513-1 1.538-1.112 1.494-.645 1.746-.121 1.898.026 1.867L0 18.058l.523 1.912-.41 1.8.61 1.82-.683 1.85.761 1.761v1.828L1.176 31l1.195-1.55.78-1.618.489-1.72-.285-2.068.756-1.65 1.383-1.342-.231-1.629.823-1.6.745-1.637V14.6l1.43-2.148 2.884.302 1.668 1.277 1.89-.831 1.787.105 1.758.777 1.798.431 1.812-.526 1.809.328 1.779-.673 1.821.315 1.727-1.01 1.91 1.075 1.729-.834z"/><path id="g" d="M13 13.214C13 11.44 16.582 11 21 11s8 .44 8 2.214c0 1.775-2.212 5.441-8 5.441s-8-3.666-8-5.44zm7.76-4.262c-3.096 0-4.74.893-9.263 2.144C5.069 12.874 2.1 7.893 1.05 3 .448.192 0 1.373 0 1.373 0 20.553 12.812 27.03 21.17 27.03 29.661 27.029 42 20.799 42 1c0-.44-.85-.224-1 .373-.882 3.51.113 12.44-11.27 9.723-3.984-1.68-5.873-2.144-8.97-2.144z"/></defs><g fill="none" fill-rule="evenodd"><mask id="b" fill="#fff"><use xlink:href="#a"/></mask><use fill="#CCE1F3" xlink:href="#a"/><g mask="url(#b)"><path fill="#E7E5E2" fill-rule="nonzero" d="M69.724 49.04c-1.715 5.83-5.21 10.674-9.719 13.611l.226 2.515-.002.102L57.85 86h-15.1l-.062-.436-2.92-20.331.109-2.543c-4.51-2.916-8.012-7.735-9.746-13.542a1.93 1.93 0 0 1-1.083.33v-.507.507c-1.142 0-2.047-.99-2.047-2.188v-6.782c0-1.197.902-2.187 2.042-2.19C30.112 25.799 39.027 16 49.911 16c10.885 0 19.802 9.802 20.87 22.326.057-.005.114-.007.172-.007 1.144 0 2.047.99 2.047 2.189v6.782c0 1.2-.903 2.188-2.047 2.188v-.507.507a1.95 1.95 0 0 1-1.23-.438z"/><g fill="#59514B"><path d="M42.507 42.296c-1.378.117-1.764-2.175-1.349-3.671.078-.284.535-1.575 1.342-1.575s1.163.706 1.213.827c.593 1.46.302 4.29-1.206 4.419m15.986 0c1.378.117 1.764-2.175 1.349-3.671-.078-.284-.535-1.575-1.342-1.575s-1.163.706-1.213.827c-.593 1.46-.302 4.29 1.206 4.419"/><path fill-rule="nonzero" d="M51.01 44.554c.825-.148 1.388-.055 1.59.234.76 1.092.517 2.248-.788 3.197-.687.499-1.631.674-2.132.416-.244-.127-.53.002-.638.288-.109.286.002.62.246.747.827.427 2.098.19 3.035-.49 1.774-1.29 2.18-3.218 1.028-4.873-.488-.7-1.351-.842-2.487-.638-.265.048-.446.337-.405.646.04.309.288.52.552.473zm5.961 7.509a4.71 4.71 0 0 1-.337.585c-.302.46-.682.921-1.142 1.351-1.373 1.281-3.16 2.022-5.433 1.954-2.217-.066-3.996-.795-5.39-1.971a7.858 7.858 0 0 1-1.273-1.355 4.723 4.723 0 0 1-.378-.586.544.544 0 0 0-.718-.237.515.515 0 0 0-.245.698c.08.155.233.41.467.73a8.906 8.906 0 0 0 1.443 1.537c1.574 1.328 3.586 2.152 6.06 2.226 2.578.077 4.639-.777 6.21-2.244a8.485 8.485 0 0 0 1.303-1.542c.21-.32.347-.574.417-.729a.516.516 0 0 0-.277-.686.543.543 0 0 0-.707.269z"/></g><g transform="translate(23 61)"><mask id="d" fill="#fff"><use xlink:href="#c"/></mask><use fill="#D8A25D" xlink:href="#c"/><g mask="url(#d)"><path fill="#5C4378" d="M-33 72.826H93v-93H-33z"/></g><g mask="url(#d)"><path fill="#D2242A" d="M47.748 30H32.25A1.26 1.26 0 0 1 31 28.73v-8.46c0-.702.56-1.271 1.251-1.271h15.497c.691 0 1.252.57 1.252 1.271v8.458a1.26 1.26 0 0 1-1.252 1.271"/><path fill="#FFF" d="M43.864 25.008a3.772 3.772 0 0 1-3.78 3.763c-2.091 0-3.784-1.686-3.784-3.763s1.693-3.763 3.784-3.763a3.772 3.772 0 0 1 3.78 3.763m-8.68 1.659h-.737l.788-1.923h.74zm9.296 0h-.456l.788-1.923h.457zm1.263 0h-.194l.787-1.923h.193z"/><path fill="#C52D35" d="M37.21 26.658h.581c.03 0 .054-.023.054-.052v-1.8a.052.052 0 0 0-.054-.051h-.586c-.04 0-.068.03-.068.068l-.23.566a.046.046 0 0 0 .04.064h.165c.025 0 .047.019.047.046v1.107c0 .029.023.052.052.052"/><path fill="#C52D35" d="M38.472 26.658h.583c.03 0 .055-.023.055-.052v-1.8c0-.028-.025-.051-.055-.051h-.906a.068.068 0 0 0-.068.068l-.232.566-.08.064h.464c.103 0 .187.081.187.186v.967c0 .029.023.052.052.052m2.604-1.903h-.582a.053.053 0 0 0-.053.052v1.799c0 .029.024.052.053.052h.588c.04 0 .068-.03.068-.068l.23-.566c.015-.031-.007-.065-.043-.065h-.16a.045.045 0 0 1-.046-.045v-1.107c0-.03-.026-.052-.055-.052"/><path fill="#C52D35" d="M38.681 26.658h.383a.068.068 0 0 0 .067-.067l.23-.568a.046.046 0 0 0-.042-.065h-.161l-.477.7zm3.953-1.903h.693c.034 0 .058.032.043.062l-.733 1.812c-.005.018-.022.029-.042.029h-.627l.621-1.872a.05.05 0 0 1 .045-.031"/><path fill="#C52D35" d="M41.766 24.755h-.979c-.069 0 .282.067.306.13l.693 1.713c.014.038.05.06.089.06h.593l-.61-1.839a.094.094 0 0 0-.092-.064m-1.278.61c0 .383-.049.406-.049.406s-.055-.367-.34-.367c-.28 0-.343.162-.343.283 0 .14.142.272.222.272h.51l-.301.664a.061.061 0 0 1-.056.035h-.232c-.242 0-.875-.316-.875-.928 0-.613.47-.975.863-.975a.58.58 0 0 1 .6.61z"/><path fill="#5A1F57" d="M40.931 20.746h-1.606a.214.214 0 0 1-.215-.214v-.27c0-.117.096-.213.215-.213h1.606c.12 0 .215.096.215.214v.27a.214.214 0 0 1-.215.213"/><path fill="#C2B5CF" d="M39.663 20.5h.93V18h-.93z"/></g></g><g transform="translate(28 11)"><mask id="f" fill="#fff"><use xlink:href="#e"/></mask><use fill="#3E3832" xlink:href="#e"/><g fill="#8B5F26" mask="url(#f)"><path d="M-15-24h69v79h-69z"/></g></g><g transform="translate(29 41)"><mask id="h" fill="#fff"><use xlink:href="#g"/></mask><g fill="#8B5F26" mask="url(#h)"><path d="M-11-23.357h69v85h-69z"/></g></g></g></g></svg>